<svg width="517" height="70" viewBox="0 0 517 70" fill="none" xmlns="http://www.w3.org/2000/svg">
<path d="M0.28 11.208C0.28 8.072 1.56 5.576 4.12 3.72C6.68 1.8 10.104 0.839996 14.392 0.839996L33.592 49.8L31.192 56.328L32.248 56.808L52.888 0.935995C57.176 0.935995 60.6 1.896 63.16 3.816C65.72 5.672 67 8.168 67 11.304V69.864C57.848 69.864 53.272 66.504 53.272 59.784V32.328L56.728 22.728L55.576 22.344L39.256 66.12C38.808 67.208 38.072 68.104 37.048 68.808C36.024 69.512 34.904 69.864 33.688 69.864C32.408 69.864 31.256 69.512 30.232 68.808C29.208 68.104 28.472 67.176 28.024 66.024L11.704 22.152L10.552 22.632L14.008 32.232V59.784C14.008 66.504 9.432 69.864 0.28 69.864V11.208ZM85.402 69.864C82.33 69.608 79.93 68.616 78.202 66.888C76.474 65.16 75.61 62.984 75.61 60.36C75.61 58.312 76.122 56.168 77.146 53.928L98.842 5.64C99.546 4.04 100.442 2.856 101.53 2.088C102.682 1.32 104.09 0.935995 105.754 0.935995C107.418 0.935995 108.794 1.32 109.882 2.088C111.034 2.856 111.962 4.04 112.666 5.64L134.362 53.928C135.386 56.168 135.898 58.28 135.898 60.264C135.898 62.952 135.034 65.16 133.306 66.888C131.578 68.616 129.146 69.608 126.01 69.864L117.946 52.296H93.466L85.402 69.864ZM113.626 40.2L103.738 15.624L102.394 16.2L104.986 22.632L97.69 40.2H113.626ZM144.561 11.4C144.561 8.072 145.777 5.512 148.209 3.72C150.641 1.864 154.129 0.935995 158.673 0.935995V31.08L189.873 0.935995C191.665 2.28 193.105 3.752 194.193 5.352C195.281 6.88799 195.825 8.23199 195.825 9.384C195.825 10.472 195.473 11.464 194.769 12.36C194.065 13.256 192.945 14.44 191.409 15.912L173.265 33L198.801 65.352C196.625 68.36 193.777 69.864 190.257 69.864C186.929 69.864 184.305 68.616 182.385 66.12L163.761 41.832L158.673 46.824V60.168C158.673 63.56 157.521 66.024 155.217 67.56C152.977 69.096 149.425 69.864 144.561 69.864V11.4ZM235.788 69.864C230.284 69.864 225.324 68.776 220.908 66.6C216.556 64.36 213.132 61.256 210.636 57.288C208.204 53.32 206.988 48.872 206.988 43.944V11.112C206.988 7.784 208.172 5.256 210.54 3.528C212.972 1.8 216.492 0.935995 221.1 0.935995V43.944C221.1 48.104 222.412 51.432 225.036 53.928C227.724 56.36 231.308 57.576 235.788 57.576C240.268 57.576 243.82 56.36 246.444 53.928C249.132 51.432 250.476 48.104 250.476 43.944V11.112C250.476 7.784 251.66 5.256 254.028 3.528C256.46 1.8 259.98 0.935995 264.588 0.935995V43.944C264.588 48.872 263.34 53.32 260.844 57.288C258.412 61.256 254.988 64.36 250.572 66.6C246.22 68.776 241.292 69.864 235.788 69.864ZM294.942 13.992H271.806C271.806 5.864 275.486 1.8 282.846 1.8H332.094C332.094 9.928 328.414 13.992 321.054 13.992H309.054V59.688C309.054 63.016 307.838 65.544 305.406 67.272C303.038 69 299.55 69.864 294.942 69.864V13.992ZM336.558 69.864C333.486 69.608 331.086 68.616 329.358 66.888C327.63 65.16 326.766 62.984 326.766 60.36C326.766 58.312 327.278 56.168 328.302 53.928L349.998 5.64C350.702 4.04 351.598 2.856 352.686 2.088C353.838 1.32 355.246 0.935995 356.91 0.935995C358.574 0.935995 359.95 1.32 361.038 2.088C362.19 2.856 363.118 4.04 363.822 5.64L385.518 53.928C386.542 56.168 387.054 58.28 387.054 60.264C387.054 62.952 386.19 65.16 384.462 66.888C382.734 68.616 380.302 69.608 377.166 69.864L369.102 52.296H344.622L336.558 69.864ZM364.782 40.2L354.894 15.624L353.55 16.2L356.142 22.632L348.846 40.2H364.782ZM395.718 11.976C395.718 8.584 396.87 5.896 399.174 3.912C401.478 1.928 404.582 0.935995 408.486 0.935995L439.302 49.704L440.358 48.84L436.038 41.64V0.935995C440.582 0.935995 444.038 1.8 446.406 3.528C448.774 5.256 449.958 7.784 449.958 11.112V60.552C449.958 62.152 449.446 63.688 448.422 65.16C447.462 66.568 446.15 67.72 444.486 68.616C442.822 69.448 441.062 69.864 439.206 69.864L406.374 17.928L405.318 18.792L409.638 25.992V59.688C409.638 63.016 408.454 65.544 406.086 67.272C403.718 69 400.262 69.864 395.718 69.864V11.976ZM487.475 69.864C482.227 69.864 477.395 68.84 472.979 66.792C468.563 64.68 465.043 61.864 462.419 58.344C459.859 54.76 458.579 50.92 458.579 46.824V23.976C458.579 19.88 459.859 16.072 462.419 12.552C465.043 8.968 468.563 6.15199 472.979 4.10399C477.395 1.99199 482.227 0.935995 487.475 0.935995C492.723 0.935995 497.555 1.99199 501.971 4.10399C506.387 6.15199 509.875 8.968 512.435 12.552C515.059 16.072 516.371 19.88 516.371 23.976V46.824C516.371 50.92 515.059 54.76 512.435 58.344C509.875 61.864 506.387 64.68 501.971 66.792C497.555 68.84 492.723 69.864 487.475 69.864ZM487.475 57.576C491.827 57.576 495.379 56.552 498.131 54.504C500.883 52.456 502.259 49.8 502.259 46.536V24.264C502.259 21 500.883 18.344 498.131 16.296C495.379 14.248 491.827 13.224 487.475 13.224C483.123 13.224 479.571 14.248 476.819 16.296C474.067 18.344 472.691 21 472.691 24.264V46.536C472.691 49.8 474.067 52.456 476.819 54.504C479.571 56.552 483.123 57.576 487.475 57.576Z" fill="#A6643C"/>
</svg>
